<?xml version="1.0" encoding="UTF-8"?>
<svg xmlns="http://www.w3.org/2000/svg" xmlns:xlink="http://www.w3.org/1999/xlink" width="375pt" height="374.999991pt" viewBox="0 0 375 374.999991" version="1.2">
<defs>
<clipPath id="clip1">
  <path d="M 106.699219 72.1875 L 256.699219 72.1875 L 256.699219 222.1875 L 106.699219 222.1875 Z M 106.699219 72.1875 "/>
</clipPath>
</defs>
<g id="surface1">
<g clip-path="url(#clip1)" clip-rule="nonzero">
<path style=" stroke:none;fill-rule:nonzero;fill:rgb(100%,100%,100%);fill-opacity:1;" d="M 242.546875 177.003906 C 242.546875 178.019531 242.496094 179.035156 242.398438 180.046875 C 242.296875 181.058594 242.148438 182.0625 241.953125 183.058594 C 241.753906 184.054688 241.507812 185.039062 241.210938 186.011719 C 240.917969 186.984375 240.574219 187.941406 240.183594 188.878906 C 239.796875 189.820312 239.363281 190.738281 238.882812 191.632812 C 238.40625 192.527344 237.882812 193.398438 237.316406 194.246094 C 236.753906 195.089844 236.148438 195.90625 235.503906 196.691406 C 234.859375 197.476562 234.175781 198.226562 233.457031 198.945312 C 232.738281 199.664062 231.988281 200.347656 231.203125 200.992188 C 230.417969 201.636719 229.601562 202.242188 228.757812 202.804688 C 227.910156 203.371094 227.039062 203.894531 226.144531 204.371094 C 225.25 204.851562 224.332031 205.285156 223.390625 205.671875 C 222.453125 206.0625 221.496094 206.40625 220.523438 206.699219 C 219.550781 206.996094 218.566406 207.242188 217.570312 207.441406 C 216.574219 207.636719 215.570312 207.785156 214.558594 207.886719 C 213.546875 207.984375 212.53125 208.035156 211.515625 208.035156 L 151.882812 208.035156 C 150.867188 208.035156 149.851562 207.984375 148.839844 207.886719 C 147.828125 207.785156 146.824219 207.636719 145.828125 207.441406 C 144.832031 207.242188 143.847656 206.996094 142.875 206.699219 C 141.902344 206.40625 140.945312 206.0625 140.007812 205.671875 C 139.066406 205.285156 138.148438 204.851562 137.253906 204.371094 C 136.359375 203.894531 135.488281 203.371094 134.640625 202.804688 C 133.796875 202.242188 132.980469 201.636719 132.195312 200.992188 C 131.410156 200.347656 130.660156 199.664062 129.941406 198.945312 C 129.222656 198.226562 128.539062 197.476562 127.894531 196.691406 C 127.25 195.90625 126.644531 195.089844 126.082031 194.246094 C 125.515625 193.398438 124.992188 192.527344 124.515625 191.632812 C 124.035156 190.738281 123.601562 189.820312 123.210938 188.878906 C 122.824219 187.941406 122.480469 186.984375 122.1875 186.011719 C 121.890625 185.039062 121.644531 184.054688 121.445312 183.058594 C 121.25 182.0625 121.101562 181.058594 121 180.046875 C 120.902344 179.035156 120.851562 178.019531 120.851562 177.003906 L 120.851562 117.367188 C 120.851562 116.347656 120.902344 115.335938 121 114.324219 C 121.101562 113.3125 121.25 112.308594 121.445312 111.3125 C 121.644531 110.316406 121.890625 109.332031 122.1875 108.359375 C 122.480469 107.386719 122.824219 106.429688 123.210938 105.492188 C 123.601562 104.550781 124.035156 103.632812 124.515625 102.738281 C 124.992188 101.839844 125.515625 100.96875 126.082031 100.125 C 126.644531 99.28125 127.25 98.464844 127.894531 97.679688 C 128.539062 96.894531 129.222656 96.140625 129.941406 95.421875 C 130.660156 94.703125 131.410156 94.023438 132.195312 93.378906 C 132.980469 92.734375 133.796875 92.128906 134.640625 91.5625 C 135.488281 91 136.359375 90.476562 137.253906 90 C 138.148438 89.519531 139.066406 89.085938 140.007812 88.695312 C 140.945312 88.308594 141.902344 87.964844 142.875 87.671875 C 143.847656 87.375 144.832031 87.128906 145.828125 86.929688 C 146.824219 86.730469 147.828125 86.582031 148.839844 86.484375 C 149.851562 86.382812 150.867188 86.335938 151.882812 86.335938 L 211.515625 86.335938 C 212.53125 86.335938 213.546875 86.382812 214.558594 86.484375 C 215.570312 86.582031 216.574219 86.730469 217.570312 86.929688 C 218.566406 87.128906 219.550781 87.375 220.523438 87.671875 C 221.496094 87.964844 222.453125 88.308594 223.390625 88.695312 C 224.332031 89.085938 225.25 89.519531 226.144531 90 C 227.039062 90.476562 227.910156 91 228.757812 91.5625 C 229.601562 92.128906 230.417969 92.734375 231.203125 93.378906 C 231.988281 94.023438 232.738281 94.703125 233.457031 95.421875 C 234.175781 96.140625 234.859375 96.894531 235.503906 97.679688 C 236.148438 98.464844 236.753906 99.28125 237.316406 100.125 C 237.882812 100.96875 238.40625 101.839844 238.882812 102.738281 C 239.363281 103.632812 239.796875 104.550781 240.183594 105.492188 C 240.574219 106.429688 240.917969 107.386719 241.210938 108.359375 C 241.507812 109.332031 241.753906 110.316406 241.953125 111.3125 C 242.148438 112.308594 242.296875 113.3125 242.398438 114.324219 C 242.496094 115.335938 242.546875 116.347656 242.546875 117.367188 Z M 256.699219 117.367188 C 256.699219 92.414062 236.46875 72.1875 211.511719 72.1875 L 151.886719 72.1875 C 126.925781 72.1875 106.699219 92.414062 106.699219 117.367188 L 106.699219 177.003906 C 106.699219 201.957031 126.929688 222.1875 151.886719 222.1875 L 211.511719 222.1875 C 212.992188 222.1875 214.46875 222.113281 215.941406 221.96875 C 217.414062 221.824219 218.875 221.609375 220.328125 221.320312 C 221.777344 221.03125 223.210938 220.671875 224.628906 220.242188 C 226.046875 219.8125 227.4375 219.3125 228.804688 218.746094 C 230.171875 218.179688 231.507812 217.550781 232.8125 216.851562 C 234.117188 216.152344 235.386719 215.394531 236.617188 214.570312 C 237.847656 213.75 239.035156 212.871094 240.179688 211.929688 C 241.324219 210.992188 242.417969 210 243.464844 208.953125 C 244.511719 207.90625 245.503906 206.8125 246.441406 205.667969 C 247.382812 204.523438 248.261719 203.335938 249.082031 202.105469 C 249.90625 200.875 250.664062 199.605469 251.363281 198.300781 C 252.0625 196.996094 252.691406 195.660156 253.257812 194.292969 C 253.824219 192.925781 254.324219 191.535156 254.753906 190.117188 C 255.183594 188.699219 255.542969 187.265625 255.832031 185.816406 C 256.121094 184.363281 256.335938 182.902344 256.480469 181.429688 C 256.625 179.957031 256.699219 178.480469 256.699219 177 Z M 181.953125 171.882812 C 181.175781 171.878906 180.402344 171.839844 179.628906 171.765625 C 178.855469 171.6875 178.085938 171.574219 177.324219 171.421875 C 176.5625 171.269531 175.8125 171.078125 175.066406 170.851562 C 174.324219 170.628906 173.59375 170.367188 172.875 170.066406 C 172.160156 169.769531 171.457031 169.4375 170.773438 169.070312 C 170.085938 168.703125 169.421875 168.304688 168.777344 167.875 C 168.128906 167.441406 167.507812 166.980469 166.90625 166.488281 C 166.304688 165.992188 165.730469 165.472656 165.183594 164.921875 C 164.632812 164.375 164.113281 163.800781 163.617188 163.199219 C 163.125 162.597656 162.664062 161.976562 162.230469 161.328125 C 161.800781 160.683594 161.402344 160.019531 161.035156 159.332031 C 160.667969 158.648438 160.335938 157.945312 160.039062 157.230469 C 159.738281 156.511719 159.476562 155.78125 159.253906 155.039062 C 159.027344 154.292969 158.835938 153.542969 158.683594 152.78125 C 158.53125 152.019531 158.417969 151.25 158.339844 150.476562 C 158.265625 149.703125 158.226562 148.929688 158.222656 148.152344 C 158.226562 147.375 158.265625 146.601562 158.339844 145.828125 C 158.417969 145.054688 158.53125 144.289062 158.683594 143.527344 C 158.835938 142.765625 159.027344 142.011719 159.253906 141.269531 C 159.476562 140.523438 159.738281 139.792969 160.039062 139.078125 C 160.335938 138.359375 160.667969 137.660156 161.035156 136.972656 C 161.402344 136.289062 161.800781 135.621094 162.230469 134.976562 C 162.664062 134.332031 163.125 133.707031 163.617188 133.109375 C 164.113281 132.507812 164.632812 131.933594 165.183594 131.382812 C 165.730469 130.832031 166.304688 130.3125 166.90625 129.820312 C 167.507812 129.328125 168.128906 128.863281 168.777344 128.433594 C 169.421875 128 170.085938 127.601562 170.773438 127.234375 C 171.457031 126.867188 172.160156 126.535156 172.875 126.238281 C 173.59375 125.941406 174.324219 125.679688 175.066406 125.453125 C 175.8125 125.226562 176.5625 125.039062 177.324219 124.886719 C 178.085938 124.734375 178.855469 124.617188 179.628906 124.542969 C 180.402344 124.464844 181.175781 124.425781 181.953125 124.425781 C 182.730469 124.425781 183.503906 124.464844 184.277344 124.542969 C 185.050781 124.617188 185.816406 124.734375 186.578125 124.886719 C 187.339844 125.035156 188.09375 125.226562 188.835938 125.453125 C 189.582031 125.679688 190.3125 125.941406 191.027344 126.238281 C 191.746094 126.535156 192.449219 126.867188 193.132812 127.234375 C 193.816406 127.601562 194.484375 128 195.128906 128.429688 C 195.773438 128.863281 196.398438 129.324219 197 129.816406 C 197.597656 130.3125 198.175781 130.832031 198.722656 131.382812 C 199.273438 131.929688 199.792969 132.507812 200.289062 133.105469 C 200.78125 133.707031 201.242188 134.332031 201.675781 134.976562 C 202.105469 135.621094 202.503906 136.289062 202.871094 136.972656 C 203.238281 137.65625 203.570312 138.359375 203.867188 139.078125 C 204.164062 139.792969 204.425781 140.523438 204.652344 141.269531 C 204.878906 142.011719 205.070312 142.765625 205.21875 143.527344 C 205.371094 144.289062 205.488281 145.054688 205.5625 145.828125 C 205.640625 146.601562 205.679688 147.375 205.679688 148.152344 C 205.679688 148.929688 205.640625 149.703125 205.5625 150.476562 C 205.488281 151.25 205.371094 152.019531 205.21875 152.78125 C 205.070312 153.542969 204.878906 154.296875 204.652344 155.039062 C 204.425781 155.78125 204.164062 156.511719 203.867188 157.230469 C 203.570312 157.949219 203.238281 158.648438 202.871094 159.332031 C 202.503906 160.019531 202.105469 160.683594 201.675781 161.332031 C 201.242188 161.976562 200.78125 162.597656 200.289062 163.199219 C 199.792969 163.800781 199.273438 164.375 198.722656 164.925781 C 198.175781 165.472656 197.597656 165.996094 197 166.488281 C 196.398438 166.980469 195.773438 167.441406 195.128906 167.875 C 194.484375 168.308594 193.816406 168.707031 193.132812 169.074219 C 192.449219 169.4375 191.746094 169.769531 191.027344 170.070312 C 190.3125 170.367188 189.582031 170.628906 188.835938 170.855469 C 188.09375 171.082031 187.339844 171.269531 186.578125 171.421875 C 185.816406 171.574219 185.050781 171.6875 184.277344 171.765625 C 183.503906 171.839844 182.730469 171.878906 181.953125 171.882812 Z M 181.953125 111.113281 C 161.527344 111.113281 144.910156 127.730469 144.910156 148.152344 C 144.910156 168.582031 161.527344 185.195312 181.953125 185.195312 C 202.378906 185.195312 218.996094 168.582031 218.996094 148.152344 C 218.996094 127.730469 202.378906 111.113281 181.953125 111.113281 Z M 221.160156 99.800781 C 220.578125 99.800781 220.003906 99.859375 219.4375 99.96875 C 218.871094 100.082031 218.316406 100.25 217.78125 100.472656 C 217.246094 100.691406 216.738281 100.964844 216.257812 101.285156 C 215.773438 101.609375 215.328125 101.972656 214.917969 102.382812 C 214.507812 102.792969 214.144531 103.238281 213.820312 103.71875 C 213.5 104.203125 213.226562 104.710938 213.007812 105.246094 C 212.785156 105.78125 212.617188 106.332031 212.503906 106.898438 C 212.390625 107.46875 212.335938 108.042969 212.335938 108.621094 C 212.335938 109.199219 212.390625 109.773438 212.503906 110.34375 C 212.617188 110.910156 212.785156 111.460938 213.007812 111.996094 C 213.226562 112.53125 213.5 113.039062 213.820312 113.523438 C 214.144531 114.003906 214.507812 114.449219 214.917969 114.859375 C 215.328125 115.269531 215.773438 115.632812 216.257812 115.957031 C 216.738281 116.277344 217.246094 116.550781 217.78125 116.769531 C 218.316406 116.992188 218.871094 117.160156 219.4375 117.273438 C 220.003906 117.382812 220.578125 117.441406 221.160156 117.441406 C 221.738281 117.441406 222.3125 117.382812 222.878906 117.269531 C 223.445312 117.15625 224 116.992188 224.535156 116.769531 C 225.070312 116.546875 225.578125 116.277344 226.058594 115.953125 C 226.539062 115.632812 226.984375 115.265625 227.394531 114.859375 C 227.804688 114.449219 228.171875 114.003906 228.492188 113.519531 C 228.8125 113.039062 229.085938 112.53125 229.308594 111.996094 C 229.527344 111.460938 229.695312 110.910156 229.808594 110.339844 C 229.921875 109.773438 229.976562 109.199219 229.976562 108.621094 C 229.976562 108.042969 229.921875 107.46875 229.808594 106.902344 C 229.695312 106.332031 229.527344 105.78125 229.308594 105.246094 C 229.085938 104.710938 228.8125 104.203125 228.492188 103.722656 C 228.171875 103.238281 227.804688 102.792969 227.394531 102.382812 C 226.984375 101.976562 226.539062 101.609375 226.058594 101.289062 C 225.578125 100.964844 225.070312 100.695312 224.535156 100.472656 C 224 100.25 223.445312 100.085938 222.878906 99.972656 C 222.3125 99.859375 221.738281 99.800781 221.160156 99.800781 Z M 221.160156 99.800781 "/>
</g>
</g>
</svg>
